<svg preserveAspectRatio="none" width="100%" height="100%" overflow="visible" style="display: block;" viewBox="0 0 18.8016 17" fill="none" xmlns="http://www.w3.org/2000/svg">
<g id="Group 625609">
<path id="Vector 1470 (Stroke)" fill-rule="evenodd" clip-rule="evenodd" d="M2.1327 2H0V0H3.8673L5.3673 10.5H14.7317L16.1984 5H6L9.5 3H18.8016L16.2683 12.5H3.6327L2.1327 2Z" fill="var(--fill-0, black)"/>
<path id="Ellipse 119" d="M7.5 15.5C7.5 16.3284 6.82843 17 6 17C5.17157 17 4.5 16.3284 4.5 15.5C4.5 14.6716 5.17157 14 6 14C6.82843 14 7.5 14.6716 7.5 15.5Z" fill="var(--fill-0, black)"/>
<path id="Ellipse 120" d="M15.5 15.5C15.5 16.3284 14.8284 17 14 17C13.1716 17 12.5 16.3284 12.5 15.5C12.5 14.6716 13.1716 14 14 14C14.8284 14 15.5 14.6716 15.5 15.5Z" fill="var(--fill-0, black)"/>
</g>
</svg>
