<svg preserveAspectRatio="none" width="100%" height="100%" overflow="visible" style="display: block;" viewBox="0 0 12 12" fill="none" xmlns="http://www.w3.org/2000/svg">
<g id="Group 34486">
<path id="Vector 1 (Stroke)" fill-rule="evenodd" clip-rule="evenodd" d="M4 3.50001L0 3.5V1.5L4 1.50001L4 3.50001Z" fill="var(--fill-0, #181616)"/>
<path id="Vector 4 (Stroke)" fill-rule="evenodd" clip-rule="evenodd" d="M12 4L7 4V2L12 2V4Z" fill="var(--fill-0, #181616)"/>
<path id="Vector 5 (Stroke)" fill-rule="evenodd" clip-rule="evenodd" d="M7.5 8.5L12 8.5L12 10.5L7.5 10.5L7.5 8.5Z" fill="var(--fill-0, #181616)"/>
<path id="Vector 6 (Stroke)" fill-rule="evenodd" clip-rule="evenodd" d="M1.60536e-06 8.5L5 8.5L5 10.5L2.38419e-06 10.5L1.60536e-06 8.5Z" fill="var(--fill-0, #181616)"/>
<path id="Vector 70 (Stroke)" fill-rule="evenodd" clip-rule="evenodd" d="M5.5 0L5.5 5L3.5 5L3.5 8.74228e-08L5.5 0Z" fill="var(--fill-0, #181616)"/>
<path id="Vector 69 (Stroke)" fill-rule="evenodd" clip-rule="evenodd" d="M8.5 7L8.5 12L6.5 12L6.5 7L8.5 7Z" fill="var(--fill-0, #181616)"/>
</g>
</svg>
