<svg preserveAspectRatio="none" width="100%" height="100%" overflow="visible" style="display: block;" viewBox="0 0 14 14" fill="none" xmlns="http://www.w3.org/2000/svg">
<path id="Union" d="M8 2.09961C9.95913 2.49726 11.5017 4.0409 11.8994 6H14V8H11.8994C11.5017 9.95904 9.95904 11.5017 8 11.8994V14H6V11.8994C4.04096 11.5017 2.4983 9.95904 2.10059 8H0V6H2.10059C2.49831 4.0409 4.04087 2.49726 6 2.09961V0H8V2.09961ZM7 4C5.34315 4 4 5.34315 4 7C4 8.65685 5.34315 10 7 10C8.65685 10 10 8.65685 10 7C10 5.34315 8.65685 4 7 4ZM7 6C7.55228 6 8 6.44772 8 7C8 7.55228 7.55228 8 7 8C6.44772 8 6 7.55228 6 7C6 6.44772 6.44772 6 7 6Z" fill="var(--fill-0, #181616)"/>
</svg>
