<svg preserveAspectRatio="none" width="100%" height="100%" overflow="visible" style="display: block;" viewBox="0 0 14 13.9596" fill="none" xmlns="http://www.w3.org/2000/svg">
<g id="Group 625618">
<path id="Ellipse 118 (Stroke)" fill-rule="evenodd" clip-rule="evenodd" d="M5.6768 1.51381C7.97595 1.51381 9.83978 3.37764 9.83978 5.67679C9.83978 7.97594 7.97595 9.83977 5.6768 9.83977C3.37765 9.83977 1.51382 7.97594 1.51382 5.67679C1.51382 3.37764 3.37765 1.51381 5.6768 1.51381ZM11.3536 5.67679C11.3536 2.54159 8.81201 0 5.6768 0C2.5416 0 1.12057e-05 2.54159 1.12057e-05 5.67679C1.12057e-05 8.81199 2.5416 11.3536 5.6768 11.3536C8.81201 11.3536 11.3536 8.81199 11.3536 5.67679Z" fill="var(--fill-0, black)"/>
<path id="Vector 63 (Stroke)" fill-rule="evenodd" clip-rule="evenodd" d="M12.7018 13.9596L9.13177 10.3895L11.7282 10.3895L14 12.6614L12.7018 13.9596Z" fill="var(--fill-0, black)"/>
</g>
</svg>
