<svg preserveAspectRatio="none" width="100%" height="100%" overflow="visible" style="display: block;" viewBox="0 0 14 13.9596" fill="none" xmlns="http://www.w3.org/2000/svg">
<g id="Vector">
<path fill-rule="evenodd" clip-rule="evenodd" d="M5.67679 1.51381C7.97594 1.51381 9.83977 3.37764 9.83977 5.67679C9.83977 7.97594 7.97594 9.83977 5.67679 9.83977C3.37764 9.83977 1.51381 7.97594 1.51381 5.67679C1.51381 3.37764 3.37764 1.51381 5.67679 1.51381ZM11.3536 5.67679C11.3536 2.54159 8.81199 0 5.67679 0C2.54158 0 0 2.54159 0 5.67679C0 8.81199 2.54158 11.3536 5.67679 11.3536C8.81199 11.3536 11.3536 8.81199 11.3536 5.67679Z" fill="var(--fill-0, #181616)"/>
<path fill-rule="evenodd" clip-rule="evenodd" d="M12.7018 13.9596L9.13176 10.3895L11.7282 10.3895L14 12.6614L12.7018 13.9596Z" fill="var(--fill-0, #181616)"/>
</g>
</svg>
